<?xml version="1.0" encoding="utf-8"?>
<!-- Generator: Adobe Illustrator 19.2.1, SVG Export Plug-In . SVG Version: 6.00 Build 0)  -->
<svg version="1.1" id="Capa_1" xmlns="http://www.w3.org/2000/svg" xmlns:xlink="http://www.w3.org/1999/xlink" x="0px" y="0px"
	 viewBox="0 0 271 380" style="enable-background:new 0 0 271 380;" xml:space="preserve">
<style type="text/css">
	.st0{fill:#2360AF;}
	.st1{fill:#FFD0AB;}
	.st2{fill:#2A7DEB;}
	.st3{fill:#B2442B;}
	.st4{filter:url(#Adobe_OpacityMaskFilter);}
	.st5{fill:#FFFFFF;}
	.st6{mask:url(#mask-2);fill:#798086;}
	.st7{fill:#6B7077;}
	.st8{fill:#929AA4;}
	.st9{fill:#798086;}
	.st10{fill:#FFCC00;}
	.st11{filter:url(#Adobe_OpacityMaskFilter_1_);}
	.st12{mask:url(#mask-4);fill:#FFCC00;}
	.st13{fill:#714035;}
	.st14{fill:#282D35;}
	.st15{fill:none;stroke:#282D35;stroke-width:1.0849;stroke-linecap:round;stroke-linejoin:round;}
	.st16{fill:#E8E8E8;}
	.st17{fill:#B58808;}
	.st18{fill:none;stroke:#ED1C24;stroke-width:0.5;}
	.st19{fill:#F1F7FF;}
	.st20{fill:#491E17;}
	.st21{fill:none;stroke:#474140;stroke-width:1.0849;stroke-linecap:round;stroke-linejoin:round;}
	.st22{fill:#474140;}
	.st23{fill:none;stroke:#E2B291;stroke-width:1.0849;stroke-linecap:round;}
	.st24{fill:none;stroke:#E2B291;stroke-width:1.0849;stroke-linecap:round;stroke-linejoin:round;}
	.st25{fill:none;stroke:#1D4799;stroke-width:1.0849;stroke-linecap:round;stroke-linejoin:round;}
	.st26{fill:none;stroke:#E8E8E8;stroke-width:1.0849;stroke-linecap:round;stroke-linejoin:round;}
</style>
<title>mr.blacksmith</title>
<desc>Created with Sketch.</desc>
<path id="Fill-1" class="st0" d="M136.9,125.5l-3.7,2.9l-2,0.2l-0.3,27.1l23.3,15.4c5.3-3.2,10.2-11.6,10.2-11.6l3.6-5.1
	C153.7,150.3,142.1,139.4,136.9,125.5"/>
<path id="Fill-3" class="st1" d="M194.7,112c-0.4-7.1-8.8-13.8-8.8-13.8l-12.4-11.5l-12.4-11.5l-7.3-4.5l-8.7-5.3l-3,0.9
	c-0.3,0-0.5,0.1-0.8,0.1c-1.8,2.8-1.6,6-2.4,8.8c2.1,0.6,3.1,1.5,3.1,1.5c0.8,0.6,1.5,1.9,2.1,3.2c0.9,1.9,1.4,3.9,1.4,3.9l7.8,16.9
	c6.9,15.6,16.2,17.2,16.2,17.2c-4.9-0.5-11.8-8.3-11.8-8.3l-4,2.8l-16.7,12.9c5.2,14,16.8,24.8,31.2,28.9l19.4-27.5
	C195,117.3,194.7,112,194.7,112"/>
<path id="Fill-5" class="st2" d="M157.3,172.7c0,0-1-8-25.4-17l-44.5-15.1c0,0-13.8,1.5-26.8,17.2c0,0,37.1-5.7,45.5,36.9
	L157.3,172.7z"/>
<path id="Fill-7" class="st2" d="M46.9,204.3c0,0-6.1,31.4-4.3,43.9c0,0,4.3,5.1,17.1,8.2l9.2-54.1L46.9,204.3z"/>
<path id="Fill-9" class="st3" d="M156.6,170.2c0,0-73.4,27.2-92.1,24.9c0,0-13.4,30.2-13.8,58.5c0,0,14.1,9.2,58.5,16.8l69.6-39.8
	C178.7,230.7,183.3,198.5,156.6,170.2"/>
<g id="Group-13" transform="translate(85.619182, 299.017523)">
	<g id="Clip-12">
	</g>
	<defs>
		<filter id="Adobe_OpacityMaskFilter" filterUnits="userSpaceOnUse" x="0.1" y="0.4" width="131.6" height="80.4">
			<feColorMatrix  type="matrix" values="1 0 0 0 0  0 1 0 0 0  0 0 1 0 0  0 0 0 1 0"/>
		</filter>
	</defs>
	<mask maskUnits="userSpaceOnUse" x="0.1" y="0.4" width="131.6" height="80.4" id="mask-2">
		<g class="st4">
			<polygon id="path-1" class="st5" points="131.7,80.7 0.1,80.7 0.1,0.4 131.7,0.4 			"/>
		</g>
	</mask>
	<path id="Fill-11" class="st6" d="M1,60.7C7,79.9,40.8,86.5,76.7,75.3c35.8-11.1,60.1-35.7,54.1-54.9C124.9,1.2,91-5.3,55.2,5.8
		C19.3,16.9-4.9,41.4,1,60.7"/>
</g>
<path id="Fill-14" class="st7" d="M197.1,337c0.5,1.7,3.5,2.3,6.6,1.3c3.1-1,5.3-3.1,4.7-4.8c-0.5-1.7-3.5-2.3-6.6-1.3
	C198.7,333.1,196.6,335.3,197.1,337"/>
<path id="Fill-16" class="st7" d="M122.6,366.8c0.5,1.7,3.5,2.3,6.6,1.3c3.1-1,5.3-3.1,4.7-4.8c-0.5-1.7-3.5-2.3-6.6-1.3
	C124.2,363,122.1,365.1,122.6,366.8"/>
<path id="Fill-18" class="st7" d="M102.6,331.2c0.3,1,2.2,1.4,4.1,0.8s3.3-1.9,2.9-3c-0.3-1-2.2-1.4-4.1-0.8
	C103.5,328.8,102.2,330.2,102.6,331.2"/>
<path id="Fill-20" class="st8" d="M110.3,339.9c3.9,12.6,26.2,17.4,49.5,9.6c23.3-7.8,42.7-23.5,34.2-32.5
	c-8.2-8.7-26,6.7-15.5-23.5c5.3-15.3-56.3-13.4-58.5,14.9C118.3,330.8,109,335.6,110.3,339.9"/>
<polygon id="Fill-22" class="st9" points="131.7,286.6 209.1,244.1 208,285.4 131.7,328.7 "/>
<polygon id="Fill-24" class="st7" points="132.1,328.7 85.1,306.8 85.1,262.5 132.1,286.6 "/>
<path id="Fill-26" class="st9" d="M117,321.6c0,0-21.7,5.7-49.2-11.4c0,0-9.4-0.5,22.2-34.7c0,0,26-1.3,33.4,17.1
	C123.3,292.6,131.8,301.7,117,321.6"/>
<path id="Fill-28" class="st8" d="M89.9,275.5c-30,32.4-23,34.6-22.2,34.7c13-0.2,37.9-8.4,55.6-17.7
	C115.9,274.2,89.9,275.5,89.9,275.5"/>
<polygon id="Fill-30" class="st8" points="83.6,261.7 165,220 209.1,244.1 132.1,286.6 "/>
<polygon id="Fill-32" class="st10" points="35.6,262.1 41.3,269.6 18.3,262.3 24.7,271.1 0,263.5 8.3,273.7 32.7,279.1 30.2,273.3 
	30.6,273.4 51,277.9 48.5,272.2 65.7,274.7 "/>
<polygon id="Fill-34" class="st10" points="197,198 214.6,178.6 228.3,176.4 209.6,193.5 219.4,192.2 192.3,213.1 203.5,198.8 "/>
<g id="Group-38" transform="translate(219.399154, 238.554280)">
	<g id="Clip-37">
	</g>
	<defs>
		<filter id="Adobe_OpacityMaskFilter_1_" filterUnits="userSpaceOnUse" x="0.2" y="0.2" width="51.4" height="13.1">
			<feColorMatrix  type="matrix" values="1 0 0 0 0  0 1 0 0 0  0 0 1 0 0  0 0 0 1 0"/>
		</filter>
	</defs>
	<mask maskUnits="userSpaceOnUse" x="0.2" y="0.2" width="51.4" height="13.1" id="mask-4">
		<g class="st11">
			<polygon id="path-3" class="st5" points="51.6,13.3 51.6,0.2 0.2,0.2 0.2,13.3 			"/>
		</g>
	</mask>
	<polygon id="Fill-36" class="st12" points="14,2.2 40.1,0.2 51.6,7.9 26.2,7.6 34.3,13.3 0.2,9.9 18.2,7.2 	"/>
</g>
<polygon id="Fill-39" class="st9" points="109.7,5.5 90.8,53.7 118.2,66.3 139.8,17.3 "/>
<path id="Fill-41" class="st8" d="M139.8,17.1c-2,5.9-10.5,8.3-19,5.4c-8.5-2.9-13.8-10-11.8-15.9c2-5.9,10.5-8.3,19-5.4
	C136.6,4.1,141.8,11.2,139.8,17.1"/>
<path id="Fill-43" class="st13" d="M129.4,40.6c2,1.2,2.3,4.5,0.6,7.4c-1.7,2.9-4.7,4.3-6.7,3.2c-2-1.2-2.3-4.5-0.6-7.4
	C124.4,40.9,127.4,39.4,129.4,40.6"/>
<path id="Fill-45" class="st9" d="M118.8,64.5c-1.8,5.4-9.7,7.6-17.6,5c-7.9-2.7-12.7-9.3-10.9-14.7c1.8-5.4,9.7-7.6,17.6-5
	C115.8,52.5,120.7,59.1,118.8,64.5"/>
<polygon id="Fill-47" class="st13" points="166,71.2 128.9,40.3 123.8,51.4 161.7,80.5 "/>
<path id="Fill-49" class="st1" d="M103.9,105.7c-5.1,0-9.7,2.1-13.2,5.6c-1.2,2.6-1.9,5.6-1.9,8.7c0,11.1,8.7,20.2,19.5,20.2
	c5.2,0,9.9-2.1,13.4-5.6c0.9-2.5,1.4-5.1,1.4-8C123.2,115.1,114.6,105.7,103.9,105.7"/>
<path id="Fill-51" class="st14" d="M102.4,119.7c0,0.8-0.6,1.4-1.4,1.4c-0.8,0-1.4-0.6-1.4-1.4s0.6-1.4,1.4-1.4
	C101.7,118.3,102.4,118.9,102.4,119.7"/>
<path id="Fill-53" class="st14" d="M113.1,118.2c0,0.8-0.6,1.4-1.4,1.4s-1.4-0.6-1.4-1.4s0.6-1.4,1.4-1.4S113.1,117.4,113.1,118.2"
	/>
<path id="Stroke-55" class="st15" d="M112,113.8l-3.4,0.6"/>
<path id="Stroke-57" class="st15" d="M97.3,115c0,0,2.5-2.4,5.4-0.5"/>
<path id="Fill-59" class="st16" d="M90.9,111.5c-1.7,0-3.2,1.3-3.6,2.9c-0.1,0.4-0.1,0.7-0.3,1.1c-0.5,1.1-2.2,1.3-2.4,2.5
	c-0.2,0.8,0.6,1.7,0.4,2.5c-0.3,0.8-1.4,1.1-1.6,2c-0.3,0.9,0.8,1.7,1.2,2.6c0.5,1.2-0.3,2.5-0.3,3.8c0,1.3,0.9,2.5,2.1,3.1
	c1.2,0.6,2.6,0.5,3.8,0c0.9-0.4,1.7-1,1.9-2c0.3-1.6-1.4-2.8-1.7-4.3c-0.2-1.2,0.4-2.4,0.2-3.5c-0.1-1-0.8-1.9-0.8-2.9
	c0-1.1,0.8-2,1-3.1c0.1-1.1-0.5-2.2-0.4-3.3L90.9,111.5z"/>
<path id="Fill-61" class="st16" d="M117.8,112.9c0.8-0.3,1.7-0.7,2.6-0.7c0.9,0,1.9,0.4,2.3,1.2c0.3,0.7,0.3,1.5,0.8,2.1
	c0.5,0.6,1.5,0.7,1.8,1.4c0.3,0.7-0.4,1.7,0.1,2.3c0.2,0.2,0.4,0.3,0.6,0.4c0.6,0.4,0.7,1.3,0.7,2c0,0.8,0.1,1.6,0.1,2.4
	c0,0.3,0,0.6-0.1,0.8c-0.2,0.4-0.8,0.6-1.3,0.6c-0.6,0.1-1.1,0.1-1.7,0c-0.5,0-1-0.1-1.3-0.4c-0.3-0.3-0.4-0.7-0.5-1.1
	c-0.8-3.5-2-6.9-3.6-10L117.8,112.9z"/>
<path id="Fill-63" class="st3" d="M141.7,173.7c0,0-8.7-15.3-12.2-17.6l9.2,1.3c0,0,7.1,8.9,8.4,13.3L141.7,173.7z"/>
<path id="Fill-65" class="st7" d="M98.2,247.9c0,0,8.8,0.1,12.4,7.8l4.6-4.2c0,0-4.3-3.7-9.3-7.1C105.8,244.4,97,240.9,98.2,247.9"
	/>
<path id="Fill-67" class="st7" d="M109.9,256.1c0,0-5.8,3.2-10,2c0,0-0.7,4.8,6.6,5.3c0,0,4.4-2.7,6-5.2L109.9,256.1z"/>
<path id="Fill-69" class="st7" d="M110.9,258c0,0,4.4,9.5,12.3,3.2l4.2-7.3l-15.2,1.1L110.9,258z"/>
<path id="Fill-71" class="st17" d="M152,175.3c0,3.1-3,6-6.4,6c-3.3,0-6-2.5-6-5.5c0-3.1,0.3-5,3.6-5c0.4,0,5.5,1.6,5.9,1.7
	C151.9,173,152,172.7,152,175.3"/>
<path id="Fill-73" class="st10" d="M152,173.5c0,3.1-2.7,5.5-6,5.5c-3.3,0-6-2.5-6-5.5s2.7-5.5,6-5.5
	C149.3,167.9,152,170.4,152,173.5"/>
<path id="Stroke-75" class="st18" d="M137.1,66.1c-1.3-0.3-2.2-0.6-2.2-0.6C135.3,65.8,136.3,66,137.1,66.1z"/>
<path id="Fill-77" class="st1" d="M147.3,42.9l-11.6,3.2c0,0-1.7,0.3-1.9,3.3l-0.5,9.2l5.6,0.9l1.3-6.8c0,0,0.8-2.3,1.7-2.2l5.2-1.7
	l-5.4,2.2c0,0-1.5,1.4-2.2,8.6c0,0,3.3-0.2,4.7,1.3l1.8-4.7c0,0,0.6-1.8,7.4-2.2c0,0-5.9,0.5-7,2.2l-1.9,5c0,0,0.6,3.8-2,5.3
	c0,0-0.5,1.8,4.9,3.1c0,0-1.3-3.7,3.4-7c0,0,2.6-1,5,0.1l5,3.9l0.3-10.2c0,0,0.6-3.9-2.7-6C154.8,48.2,150.9,42.3,147.3,42.9"/>
<path id="Fill-79" class="st1" d="M78,245.5c0,0,0-0.5-8.4-2.7c0,0-15.8-5.1-22.3-19.6c0,0-9.8-23.5-0.9-44.3c0,0,11.8,12,31.6,22.6
	l-4.3,8.9c0,0-2.5-3.6-6.6-4c0,0,4.4,0.2,6.6,4.3c0,0,5.7,4.7,9.9,11.8c0,0,2.2,4.4,6,8.3c0,0,1.5,2.4,9.5,2.7
	c0,0,11.7-0.1,13.4,8.8c0,0,0.7,3.2-1.4,5.7l-5.2-3.7l-4.3,1c0,0-3.3,4.2-1.6,12.3c0,0,2.2,8.1,9.7,3.3l2-1.6c0,0,0.3,1.2,0.9,1.9
	c0.4,0.5,0.5,1.2,0.1,1.8c-1.6,2.2-5.4,6.1-11.5,4.8c0,0-7.7-3.4-8.4-10.5c0,0,0.1,6.6,7.9,10.6c0,0-5.8,1.1-10.9-2.4
	c0,0-4.2-3.3-4.4-10.8c0,0-0.5,6.2,3.7,10.7c0,0-4.2,0.1-6.2-2.4c0,0-4.5-4.4-3.9-14.7C79,248.2,79.1,246.6,78,245.5"/>
<path id="Fill-81" class="st2" d="M69,158.7h-9.6c0,0-9.7,8.1-14.3,21.3c0,0,16.6,16,32.9,22.9l10.9-18.8l-1.7-1.3l4,2.1l-2.1-0.7
	l-5,8.9l18.4-4.8C102.5,188.4,106.9,160.7,69,158.7"/>
<path id="Fill-83" class="st3" d="M56.3,162.2c0,0,31.9-11.5,43.4,25.6l8.9-2.3c0,0-7.8-34.3-43.6-32.8L56.3,162.2z"/>
<path id="Fill-85" class="st19" d="M109,126.9c0,0,7.5-4.9,14.4-2.1c0,0,14.7-5,12.3,15.4c0,0,7.1-0.5,4.8,8.8c0,0,6-0.4,5.4,6
	c0,0-0.3,3.7-5.5,4.4c0,0-1.3,8.3-10.8,6.8c0,0-1.5,7.9-11.8,6.8c0,0-4.4,6.6-12.9,2.8c0,0-11.7,6.6-12.3-5.6c0,0-9.5-5.5-3.1-15.3
	c0,0-8.4-5.7-4.9-13.6c0,0-4.8-11.1,7.6-11.1C92.3,130.1,101.9,126.1,109,126.9"/>
<path id="Fill-87" class="st17" d="M107.9,186.7c0,2.7-2.4,4.9-5.4,4.9s-5.4-2.2-5.4-4.9c0-2.7-0.2-5,2.8-5c0.7,0,6.4,0.7,7,1
	C108.9,183.4,107.9,184.7,107.9,186.7"/>
<path id="Fill-89" class="st10" d="M108,184.4c0,2.7-2.4,4.9-5.4,4.9s-5.4-2.2-5.4-4.9s2.4-4.9,5.4-4.9S108,181.7,108,184.4"/>
<path id="Stroke-91" class="st15" d="M102.9,137.1c0,0,7.1,1.5,3.4,10.7"/>
<path id="Stroke-93" class="st15" d="M121.9,133.5c0,0-2.5,8.2-14.7,7.8"/>
<polygon id="Fill-95" class="st5" points="192.9,243.3 141.9,271.1 111.3,256.1 162.1,228.2 "/>
<path id="Fill-97" class="st20" d="M166.3,71.4c1.7,1,1.9,3.7,0.5,6.1c-1.4,2.4-3.9,3.6-5.5,2.6c-1.7-1-1.9-3.7-0.5-6.1
	C162.2,71.7,164.6,70.5,166.3,71.4"/>
<polyline id="Stroke-99" class="st21" points="162.5,229 155,249.4 114.8,256.8 "/>
<path id="Fill-101" class="st9" d="M126.2,251.9l-5.5,3.7c0,0-3.3-6.1-7.9-1.1l-2.1-0.9c0,0,1.7-8.1,12.6-5.7
	C123.2,247.9,126.5,249.3,126.2,251.9"/>
<path id="Fill-103" class="st22" d="M114.4,256.1c0,1.8-1.1,3.3-2.4,3.3c-1.3,0-2.4-1.5-2.4-3.3c0-1.8,1.1-3.3,2.4-3.3
	C113.3,252.8,114.4,254.2,114.4,256.1"/>
<path id="Fill-105" class="st1" d="M137.1,66.1c-0.9-0.1-1.8-0.3-2.2-0.6C135,65.5,135.9,65.8,137.1,66.1c0.7,0.1,1.4,0.1,1.4,0.1
	c3.5,0.9,5.3-1.6,5.3-1.6c3-5-3.2-5-3.2-5c-1.6-0.2-3.5-0.7-3.5-0.7c-7.5-2-6.5,5.7-6.5,5.7c-0.2,10.8,5.3,10.2,5.3,10.2
	c1.2,0,2.2,0.2,3.1,0.4c0.9-2.9,0.7-6,2.4-8.8C139.8,66.6,138.3,66.4,137.1,66.1"/>
<path id="Stroke-107" class="st23" d="M147.4,48.5l-6.3,2.6c0,0-1,2.4-2,7.5"/>
<path id="Stroke-109" class="st23" d="M152.4,54l-6.1,1.5c0,0-0.7,0.5-1.7,5.6"/>
<path id="Stroke-111" class="st24" d="M100.7,267.9c0,0-7.4-3.9-7.9-10.6"/>
<path id="Stroke-113" class="st24" d="M89.4,265.3c0,0-3.7-3.7-4.2-10.4"/>
<path id="Stroke-115" class="st24" d="M169.2,118.4c0,0-7.4-3.3-11.3-8.7"/>
<path id="Stroke-117" class="st25" d="M88.9,184.2l-4.8,8.5"/>
<path id="Stroke-119" class="st25" d="M87.2,182.9l4,2.1"/>
<path id="Stroke-121" class="st23" d="M134.4,65.2c0,0,7.2,3.5,9.4-0.6c0,0,4.9-5.4-8.5-5.8"/>
<path id="Stroke-123" class="st23" d="M147,69.3c0,0-3.9,0.7-4.7-2.7"/>
<path id="Stroke-125" class="st26" d="M104.5,105.8c0,0-3.2-5.5-5.3,1.1"/>
<path id="Stroke-127" class="st26" d="M101.4,106.6c0,0-3.2-5.5-5.3,1.1"/>
</svg>
