<?xml version="1.0" encoding="utf-8"?>
<!-- Generator: Adobe Illustrator 19.2.1, SVG Export Plug-In . SVG Version: 6.00 Build 0)  -->
<svg version="1.1" id="Capa_1" xmlns="http://www.w3.org/2000/svg" xmlns:xlink="http://www.w3.org/1999/xlink" x="0px" y="0px"
	 viewBox="0 0 150 113" style="enable-background:new 0 0 150 113;" xml:space="preserve">
<style type="text/css">
	.st0{fill:#FF9100;}
	.st1{fill:#FFCC00;}
	.st2{fill:#EBF3FF;}
	.st3{fill:url(#Rectangle-path_2_);}
	.st4{fill:#E2EBFA;}
	.st5{opacity:0.25;fill:url(#Shape_9_);enable-background:new    ;}
	.st6{fill:#F1F6FF;}
	.st7{fill:#2A7DEB;}
	.st8{fill:#2360AF;}
	.st9{fill:url(#Oval_1_);}
	.st10{opacity:0.11;}
	.st11{fill:#6FB770;}
	.st12{fill:#FFFFFF;}
</style>
<title>compatible-email</title>
<desc>Created with Sketch.</desc>
<path id="Shape" class="st0" d="M145.4,59.4l4.6-11.1l-7.5-6.5c0.3-2.1,0.3-4.3,0-6.5l7.5-6.2l-4.6-11.1l-9.8,0.8
	c-1.3-1.8-2.8-3.4-4.6-4.6l1-9.5L120.8,0l-6.5,7.5c-2.1-0.3-4.3-0.3-6.5,0L101.7,0L90.7,4.6l0.8,9.8c-1.8,1.3-3.4,2.8-4.6,4.6
	l-9.8-1l-4.6,11.1l7.5,6.5c-0.3,2.1-0.3,4.3,0,6.5l-7.5,6.2L77,59.4l9.8-0.8c1.3,1.8,2.9,3.3,4.6,4.6L90.7,73l11.1,4.6l6.5-7.5
	c2.1,0.3,4.3,0.3,6.5,0l6.2,7.5L132,73l-0.8-9.8c1.8-1.3,3.4-2.8,4.6-4.6L145.4,59.4z M107.4,48c-5.1-2.1-7.5-7.8-5.4-12.9
	s7.8-7.5,12.9-5.4c5.1,2.1,7.5,7.8,5.4,12.9C118.3,47.7,112.6,50.1,107.4,48z"/>
<path id="Shape_1_" class="st1" d="M117.1,24.2c-6-2.4-12.9-1.1-17.4,3.5c-4.6,4.6-5.9,11.5-3.4,17.4s8.4,9.8,14.8,9.8
	c6.5,0,12.3-3.9,14.8-9.9C129,36.8,125.1,27.3,117.1,24.2z M107.4,47.4c-3.5-1.4-5.8-4.8-5.8-8.6c0-3.8,2.2-7.2,5.7-8.6
	s7.5-0.7,10.2,2s3.5,6.6,2.1,10.1C117.6,47.2,112.2,49.4,107.4,47.4z"/>
<rect id="Rectangle-path" x="13.4" y="39.3" class="st2" width="108" height="60.7"/>
<radialGradient id="Rectangle-path_2_" cx="-532.1345" cy="664.7551" r="0.492" gradientTransform="matrix(-60.7142 0 0 60.7143 -32240.3047 -40332.2852)" gradientUnits="userSpaceOnUse">
	<stop  offset="0" style="stop-color:#5F7BE1"/>
	<stop  offset="1" style="stop-color:#FFFFFF;stop-opacity:0"/>
</radialGradient>
<rect id="Rectangle-path_1_" x="13.4" y="39.3" class="st3" width="108" height="60.7"/>
<polygon id="Shape_2_" class="st4" points="50.7,60.2 84.6,59.8 121.4,99.1 13.4,99.1 "/>
<linearGradient id="Shape_9_" gradientUnits="userSpaceOnUse" x1="-518.6498" y1="642.1782" x2="-518.6498" y2="643.1782" gradientTransform="matrix(108.0357 0 0 -39.2857 56100.1055 25327.5332)">
	<stop  offset="0" style="stop-color:#FFFFFF;stop-opacity:0"/>
	<stop  offset="0.18" style="stop-color:#FDFDFF;stop-opacity:1.000000e-02"/>
	<stop  offset="0.31" style="stop-color:#F6F7FD;stop-opacity:6.000000e-02"/>
	<stop  offset="0.44" style="stop-color:#EAEEFB;stop-opacity:0.13"/>
	<stop  offset="0.56" style="stop-color:#D9E0F8;stop-opacity:0.23"/>
	<stop  offset="0.67" style="stop-color:#C4CEF4;stop-opacity:0.37"/>
	<stop  offset="0.77" style="stop-color:#AAB9EF;stop-opacity:0.53"/>
	<stop  offset="0.88" style="stop-color:#8A9FE9;stop-opacity:0.73"/>
	<stop  offset="0.98" style="stop-color:#6782E3;stop-opacity:0.95"/>
	<stop  offset="1" style="stop-color:#5F7BE1"/>
</linearGradient>
<polygon id="Shape_3_" class="st5" points="50.7,60.2 84.6,59.8 121.4,99.1 13.4,99.1 "/>
<polygon id="Shape_4_" class="st6" points="13.4,39.3 121.4,39.3 67.9,70.5 "/>
<path id="Shape_5_" class="st7" d="M39.3,96v-6l-4.6-1.5c-0.3-1.1-0.8-2.1-1.2-3.1l2.1-4.3l-4.1-4.2l-4.3,2.2c-1-0.5-2-0.9-3.1-1.2
	l-1.4-4.6h-6l-1.5,4.6c-1,0.3-2.1,0.8-3.1,1.2l-4.3-2.2l-4.1,4.2l2.1,4.3c-0.5,1-0.9,1.9-1.2,2.9L0,89.7v6l4.6,1.5
	c0.3,1.1,0.8,2.1,1.2,3.1l-2.1,4.3l4.1,4.2l4.3-2.2c0.9,0.5,1.9,0.9,2.9,1.2l1.4,4.6h6l1.5-4.6c1-0.3,2-0.7,2.9-1.2l4.3,2.2l4.1-4.2
	l-2.1-4.3c0.5-1,0.9-2,1.2-3.1L39.3,96z M19.8,99.9c-2.7,0-5.2-1.6-6.2-4.2s-0.5-5.4,1.5-7.4s4.8-2.5,7.3-1.5c2.5,1,4.2,3.5,4.2,6.2
	c0,1.8-0.7,3.5-2,4.8S21.6,99.9,19.8,99.9L19.8,99.9z"/>
<path id="Shape_6_" class="st8" d="M19.2,82.1c-5.7,0-10.3,4.6-10.3,10.3c0,5.7,4.6,10.3,10.3,10.3s10.3-4.6,10.3-10.3
	C29.5,86.7,24.9,82.2,19.2,82.1L19.2,82.1z M19.2,99c-3.6,0-6.5-2.9-6.5-6.5s2.9-6.5,6.5-6.5s6.5,2.9,6.5,6.5c0,1.7-0.7,3.4-1.9,4.6
	C22.6,98.3,20.9,99,19.2,99z"/>
<linearGradient id="Oval_1_" gradientUnits="userSpaceOnUse" x1="-503.7628" y1="635.529" x2="-502.7628" y2="635.529" gradientTransform="matrix(25.8929 0 0 -25.8929 13044.75 16497.1777)">
	<stop  offset="0" style="stop-color:#ACCE58"/>
	<stop  offset="0.42" style="stop-color:#95C561"/>
	<stop  offset="1" style="stop-color:#6FB770"/>
</linearGradient>
<circle id="Oval" class="st9" cx="13.8" cy="41.5" r="12.9"/>
<g id="Group" transform="translate(6.250000, 37.500000)" class="st10">
	<path id="Shape_7_" class="st11" d="M5.8,11.5c-0.3,0-0.6-0.1-0.9-0.3L0.4,6.9C0,6.4-0.1,5.7,0.4,5.2c0.5-0.5,1.3-0.5,1.7,0
		l3.7,3.5l9-8.1c0.5-0.4,1.3-0.4,1.7,0.1s0.4,1.2-0.1,1.7l-9.8,8.9C6.5,11.4,6.2,11.5,5.8,11.5z"/>
</g>
<path id="Shape_8_" class="st12" d="M12.1,49.1c-0.3,0-0.6-0.1-0.9-0.3l-4.6-4.4c-0.3-0.3-0.4-0.8-0.3-1.2c0.1-0.4,0.4-0.8,0.9-0.9
	c0.4-0.1,0.9,0,1.2,0.3l3.7,3.6l9-8.4c0.5-0.5,1.3-0.4,1.7,0.1c0.5,0.5,0.4,1.3-0.1,1.7l-9.9,9.2C12.7,49,12.4,49.1,12.1,49.1
	L12.1,49.1z"/>
</svg>
