<?xml version="1.0" encoding="utf-8"?>
<!-- Generator: Adobe Illustrator 19.2.1, SVG Export Plug-In . SVG Version: 6.00 Build 0)  -->
<svg version="1.1" id="Capa_1" xmlns="http://www.w3.org/2000/svg" xmlns:xlink="http://www.w3.org/1999/xlink" x="0px" y="0px"
	 viewBox="0 0 110 115" style="enable-background:new 0 0 110 115;" xml:space="preserve">
<style type="text/css">
	.st0{fill:#2A7DEB;}
	.st1{fill:#FF9100;}
	.st2{fill:#2360AF;}
	.st3{fill:#2B3140;}
	.st4{fill:url(#Shape_6_);}
	.st5{fill:#313B51;}
	
		.st6{opacity:0.11;fill:none;stroke:#6FB770;stroke-width:1.9637;stroke-linecap:round;stroke-linejoin:round;enable-background:new    ;}
	.st7{fill:none;stroke:#FFFFFF;stroke-width:1.9637;stroke-linecap:round;stroke-linejoin:round;}
</style>
<title>email-client</title>
<desc>Created with Sketch.</desc>
<path id="Shape" class="st0" d="M94,28.7H18.4v0.1c-0.3,0-0.7-0.1-1-0.1C7.8,28.7,0,36.5,0,46.1v44h108.6V43.3
	C108.6,35.2,102.1,28.7,94,28.7z"/>
<rect id="Rectangle-path" x="47.1" y="90.1" class="st1" width="16.4" height="24.6"/>
<path id="Shape_1_" class="st2" d="M34.8,90.1H0v-44c0-9.6,7.8-17.4,17.4-17.4l0,0c4.6,0,9.1,1.8,12.3,5.1s5.1,7.7,5.1,12.3V90.1
	L34.8,90.1z"/>
<path id="Shape_2_" class="st3" d="M85.1,61.5L85.1,61.5c-4.5,0-8.2-3.7-8.2-8.2l0,0c0-2.2,0.9-4.3,2.4-5.8c1.5-1.5,3.6-2.4,5.8-2.4
	l0,0c4.5,0,8.2,3.7,8.2,8.2l0,0c0,2.2-0.9,4.3-2.4,5.8C89.4,60.6,87.3,61.5,85.1,61.5L85.1,61.5z"/>
<linearGradient id="Shape_6_" gradientUnits="userSpaceOnUse" x1="-521.8832" y1="624.4302" x2="-520.8832" y2="624.4302" gradientTransform="matrix(24.5967 0 0 -16.3896 12921.7285 10242.3623)">
	<stop  offset="0" style="stop-color:#ACCE58"/>
	<stop  offset="0.42" style="stop-color:#95C561"/>
	<stop  offset="1" style="stop-color:#6FB770"/>
</linearGradient>
<polygon id="Shape_3_" class="st4" points="109.7,16.4 85.1,16.4 85.1,0 109.7,0 109.7,8.2 "/>
<rect id="Rectangle-path_1_" x="83.1" class="st5" width="4.1" height="53.3"/>
<polyline id="Shape_4_" class="st6" points="93.1,9.5 96.7,13 104.6,5.7 "/>
<polyline id="Shape_5_" class="st7" points="92.9,8.5 96.5,12.1 104.3,4.7 "/>
<path id="Rectangle-path_2_" class="st0" d="M6.9,43.7h18.4c0.7,0,1.2,0.5,1.2,1.2v0.9c0,0.7-0.5,1.2-1.2,1.2H6.9
	c-0.7,0-1.2-0.5-1.2-1.2v-0.9C5.7,44.2,6.2,43.7,6.9,43.7z"/>
<path id="Rectangle-path_3_" class="st0" d="M6.9,49.1h18.4c0.7,0,1.2,0.5,1.2,1.2v0.9c0,0.7-0.5,1.2-1.2,1.2H6.9
	c-0.7,0-1.2-0.5-1.2-1.2v-0.9C5.7,49.6,6.2,49.1,6.9,49.1z"/>
</svg>
