<?xml version="1.0" encoding="UTF-8"?>
<svg width="208px" height="38px" viewBox="0 0 208 38" version="1.1" xmlns="http://www.w3.org/2000/svg" xmlns:xlink="http://www.w3.org/1999/xlink">
    <!-- Generator: Sketch 46.2 (44496) - http://www.bohemiancoding.com/sketch -->
    <title>Page 1</title>
    <desc>Created with Sketch.</desc>
    <defs>
        <polygon id="path-1" points="0 33.6211342 0 0.162574222 54.8629684 0.162574222 54.8629684 33.6211342 6.71677129e-16 33.6211342"></polygon>
        <polygon id="path-3" points="0 45.8474844 209.8404 45.8474844 209.8404 0 0 0"></polygon>
    </defs>
    <g id="email.com" stroke="none" stroke-width="1" fill="none" fill-rule="evenodd">
        <g id="Artboard" transform="translate(-170.000000, -54.000000)">
            <g id="Page-1" transform="translate(170.000000, 49.000000)">
                <g id="Group-3" transform="translate(0.000000, 5.571929)">
                    <mask id="mask-2" fill="white">
                        <use xlink:href="#path-1"></use>
                    </mask>
                    <g id="Clip-2"></g>
                    <path d="M54.8464888,14.1733564 C54.723562,12.9381031 53.9284302,11.8866453 52.7704595,11.4293031 C50.1719912,10.4042187 47.4296985,9.54677867 44.6193863,8.87988089 C44.3737376,8.82181867 44.1284985,8.80116978 43.8873571,8.80812089 L43.8873571,4.56794311 L43.8873571,4.55812978 C43.8873571,4.54770311 43.8859229,4.53788978 43.8859229,4.52766756 C43.8848985,4.47164978 43.8822351,4.41604089 43.877318,4.36084089 C43.87404,4.32138311 43.8691229,4.28253867 43.864001,4.24369422 C43.8609278,4.22181867 43.8576498,4.19994311 43.853962,4.178272 C43.707679,3.28198756 43.055962,2.55641422 42.1985473,2.30412978 L42.0637376,2.25158756 C41.9963327,2.22562311 41.9276985,2.20231644 41.85804,2.18248533 C37.1745278,0.842147556 32.3570254,0.162574222 27.5354254,0.162574222 C22.6294156,0.162574222 17.7713473,0.839285333 13.0952107,2.174512 L12.8126839,2.25036089 C11.9185961,2.421072 11.2062351,3.09614756 10.9800498,3.96769422 C10.9769766,3.97852978 10.9743132,3.98936533 10.9714449,4.00040533 C10.9593571,4.04967644 10.9487034,4.09935644 10.9398937,4.14985422 C10.9353863,4.17540978 10.9319034,4.20116978 10.9280107,4.22692978 C10.9222741,4.26761422 10.9163327,4.30829867 10.9126449,4.34980089 C10.907318,4.40704533 10.9048595,4.46469867 10.9038351,4.52255644 C10.9036302,4.53461867 10.9019912,4.54606756 10.9019912,4.55812978 L10.9019912,4.56548978 L10.9019912,8.80689422 C10.6842059,8.80628089 10.4635522,8.827952 10.2424888,8.88008533 C7.4329961,9.54677867 4.69090829,10.4042187 2.09182537,11.429712 C0.934879024,11.8864409 0.139747317,12.9374898 0.0164107317,14.1727431 C-0.10631122,15.4024764 0.46284,16.583552 1.50136683,17.2545387 C2.49727902,17.8987431 3.46696683,18.5750453 4.43911317,19.304912 C4.18670341,20.7448142 3.98284976,22.2211076 3.83124,23.7104853 C3.71445951,24.8588498 4.1971522,25.962032 5.12258634,26.6616409 C5.12279122,26.6620498 5.12320098,26.6622542 5.12361073,26.6624587 C5.70669366,27.102832 6.39897659,27.3356942 7.12567902,27.3356942 C7.54178634,27.3356942 7.95010829,27.2582098 8.34081073,27.104672 C9.34737659,26.7084587 10.4826059,26.3187876 11.7157668,25.9462898 C11.9448205,25.8769831 12.1564595,25.7786453 12.3525278,25.6606809 C12.97044,26.9032942 13.7749961,28.066992 14.7567717,29.1108853 C17.2058839,31.7142809 20.532079,33.2764409 24.122362,33.5101209 C25.2532888,33.5837209 26.4090059,33.6211342 27.5577571,33.6211342 C28.6825376,33.6211342 29.815718,33.5849476 30.9249278,33.5140053 C34.4881668,33.2856409 37.6875424,31.7647787 40.1772205,29.115792 C41.1391229,28.0923431 41.9240107,26.9282364 42.5226644,25.6680409 C42.7156595,25.7827342 42.9234059,25.8786187 43.1477473,25.9464942 C44.3804985,26.3187876 45.5157278,26.7084587 46.5243424,27.1054898 C46.9129961,27.2580053 47.321318,27.3354898 47.7374254,27.3354898 C48.4645376,27.3354898 49.1568205,27.1026276 49.7401083,26.6620498 C50.6657473,25.9624409 51.1486449,24.8590542 51.0316595,23.7104853 C50.8802546,22.2211076 50.6761961,20.7448142 50.4237863,19.304912 C51.3959327,18.5750453 52.3654156,17.8987431 53.360918,17.2549476 C54.3998546,16.5837564 54.9692107,15.4026809 54.8464888,14.1733564" id="Fill-1" fill="#FFFFFF" mask="url(#mask-2)"></path>
                </g>
                <mask id="mask-4" fill="white">
                    <use xlink:href="#path-3"></use>
                </mask>
                <g id="Clip-4"></g>
                <text id="Mailforge" mask="url(#mask-4)" font-family="JosefinSans-Bold, Josefin Sans" font-size="36.6949997" font-weight="bold" letter-spacing="-0.66050997" fill="#FFFFFF">
                    <tspan x="61.571959" y="34.7003458">M</tspan>
                    <tspan x="93.4599138" y="34.7003458">ail</tspan>
                    <tspan x="129.200843" y="34.7003458" letter-spacing="-0.293560006">f</tspan>
                    <tspan x="141.053328" y="34.7003458">o</tspan>
                    <tspan x="159.914558" y="34.7003458" letter-spacing="-0.293560006">r</tspan>
                    <tspan x="171.216618" y="34.7003458">ge</tspan>
                </text>
                <path d="M24.3764517,35.1846027 C26.4785005,35.321376 28.628081,35.3226027 30.7268517,35.1882827 C36.2573298,34.8339804 40.6093493,30.2243716 40.6093493,24.6939449 L40.6093493,10.8454916 L14.5898371,10.8454916 L14.5898371,24.6904693 C14.5898371,27.3711449 15.5632127,29.9248604 17.4034273,31.8811893 C19.2430273,33.8369049 21.6933688,35.0100071 24.3764517,35.1846027" id="Fill-5" fill="#FFFFFF" mask="url(#mask-4)"></path>
                <path d="M41.2239834,24.6940062 C41.2239834,30.5411173 36.6314371,35.3850196 30.7840127,35.7593573 C28.6541005,35.8959262 26.5123054,35.8946996 24.3789102,35.7558818 C18.5321005,35.3754107 13.9752029,30.5372329 13.9752029,24.6905307 L13.9752029,10.2322196 L41.2239834,10.2322196 L41.2239834,24.6940062 Z M13.3605688,9.61888622 L13.3605688,24.6905307 C13.3605688,27.6633573 14.4851444,30.4953218 16.5259346,32.6648862 C18.5652907,34.8328151 21.3270468,36.1334907 24.3014663,36.3270996 C25.3865005,36.3976329 26.4789102,36.4330018 27.5707054,36.4330018 C28.6434468,36.4330018 29.7159834,36.3988596 30.7805298,36.3307796 C33.7545395,36.1402373 36.4738859,34.8403796 38.5130371,32.6704062 C40.5523932,30.5006373 41.6337395,27.6678551 41.6337395,24.6940062 L41.6337395,9.61888622 L13.3605688,9.61888622 Z" id="Fill-6" fill="#0072C0" mask="url(#mask-4)"></path>
                <path d="M14.5898371,10.8455529 L40.6093493,10.8455529 L40.6093493,24.6940062 C40.6093493,30.2244329 36.2573298,34.8338373 30.7268517,35.1881396 C28.628081,35.3224596 26.4883346,35.3214373 24.3862859,35.184664 C21.7034078,35.0100684 19.2479444,33.8369662 17.4083444,31.8812507 C15.5681298,29.9249218 14.5898371,27.3712062 14.5898371,24.6905307 L14.5898371,10.8455529 Z M13.9752029,24.6905307 C13.9752029,30.5372329 18.5120224,35.3754107 24.3588322,35.7558818 C26.4922273,35.8946996 28.6639346,35.8959262 30.7938468,35.7593573 C36.6412712,35.3850196 41.2239834,30.5411173 41.2239834,24.6940062 L41.2239834,10.2322196 L13.9752029,10.2322196 L13.9752029,24.6905307 Z" id="Fill-7" fill="#0072C0" mask="url(#mask-4)"></path>
                <path d="M47.7374459,30.1803342 C47.6153385,30.1803342 47.4924117,30.1576409 47.374402,30.111232 C46.3080117,29.6915076 45.1123434,29.2807787 43.8205873,28.8906987 C43.5544507,28.810352 43.4038654,28.5298542 43.4843824,28.2640764 C43.5651044,27.9982987 43.8459922,27.848032 44.1125385,27.9285831 C45.4182263,28.3229564 46.6294654,28.738592 47.71368,29.1640409 C47.522119,27.2943964 47.2436898,25.4492853 46.8865873,23.6790009 C46.8138556,23.3187698 46.94928,22.9522009 47.240002,22.7226098 C48.6589873,21.601232 50.0519532,20.6000676 51.4965483,19.6635076 C49.0607532,18.7054809 46.4887141,17.9026276 43.8500898,17.2764142 C43.5794459,17.2122187 43.4122654,16.9411253 43.4765971,16.6710542 C43.5409288,16.4011876 43.8123922,16.2343609 44.0830361,16.298352 C46.7861971,16.9398987 49.4215434,17.7640142 51.9163434,18.7482098 C52.2611532,18.8843698 52.4981971,19.1973742 52.5348702,19.5653742 C52.5709288,19.9274453 52.4037483,20.2750009 52.09848,20.4722898 C50.6657678,21.3986276 49.2850946,22.3891609 47.8781971,23.5005209 C48.2426751,25.3108764 48.5262263,27.1972853 48.7206556,29.1078187 C48.7548702,29.4449476 48.6116605,29.7698098 48.3375337,29.976912 C48.1599044,30.111232 47.9499044,30.1803342 47.7374459,30.1803342" id="Fill-8" fill="#0072C0" mask="url(#mask-4)"></path>
                <path d="M6.52540683,29.976912 C6.25128,29.7698098 6.10807024,29.4449476 6.14228488,29.1078187 C6.33671415,27.1972853 6.62026537,25.3108764 6.98474341,23.5005209 C5.57784585,22.3891609 4.19717268,21.3986276 2.76446049,20.4722898 C2.4591922,20.2750009 2.29201171,19.9274453 2.32807024,19.5653742 C2.36474341,19.1973742 2.60178732,18.8843698 2.94659707,18.7482098 C5.44139707,17.7640142 8.07674341,16.9398987 10.7799044,16.298352 C11.0505483,16.2343609 11.3220117,16.4011876 11.3863434,16.6710542 C11.4506751,16.9411253 11.2834946,17.2122187 11.0128507,17.2764142 C8.37422634,17.9026276 5.80218732,18.7054809 3.3663922,19.6635076 C4.81098732,20.6000676 6.20395317,21.601232 7.62293854,22.7226098 C7.91366049,22.9522009 8.04908488,23.3187698 7.97635317,23.6790009 C7.61925073,25.4492853 7.34082146,27.2943964 7.14926049,29.1640409 C8.23347512,28.738592 9.44471415,28.3229564 10.750402,27.9285831 C11.0169483,27.848032 11.2978361,27.9982987 11.378558,28.2640764 C11.4590751,28.5298542 11.3084898,28.810352 11.0423532,28.8906987 C9.75059707,29.2807787 8.55492878,29.6915076 7.48853854,30.111232 C7.37052878,30.1576409 7.24760195,30.1803342 7.12549463,30.1803342 C6.9130361,30.1803342 6.7030361,30.111232 6.52540683,29.976912" id="Fill-9" fill="#0072C0" mask="url(#mask-4)"></path>
                <path d="M15.5926332,30.9455493 L40.8141454,22.3623582 L40.8141454,21.3887938 L15.0683502,30.1539404 C15.0693746,30.1559849 15.0505259,30.1578249 15.0515502,30.1596649 L15.0783893,30.1539404 C15.235121,30.4254427 15.4139795,30.689176 15.5926332,30.9455493" id="Fill-12" fill="#0072C0" mask="url(#mask-4)"></path>
                <path d="M15.5524361,30.9455493 C15.3737824,30.689176 15.2049629,30.4254427 15.0482312,30.1539404 L15.0314312,30.1596649 C15.1889824,30.4319849 15.3483776,30.6967404 15.5278507,30.9539316 L15.5524361,30.9455493 Z" id="Fill-13" fill="#0072C0" mask="url(#mask-4)"></path>
                <path d="M40.7326859,25.5660231 L17.8447346,33.3641476 C18.1442663,33.5978276 18.4562956,33.8165831 18.779798,34.0191876 L40.5978761,26.5855876 C40.6581102,26.2505031 40.7031834,25.910512 40.7326859,25.5660231" id="Fill-14" fill="#0072C0" mask="url(#mask-4)"></path>
                <path d="M22.8671971,35.5622729 C23.2283971,35.6215618 23.5955385,35.6636773 23.9680068,35.6875973 C24.371002,35.7133573 24.774202,35.7325751 25.1778117,35.7485218 L38.6260068,31.1667173 C38.9169337,30.7709129 39.1824556,30.3556862 39.4192946,29.9226729 L22.8671971,35.5622729 Z" id="Fill-15" fill="#0072C0" mask="url(#mask-4)"></path>
                <path d="M13.8276498,27.005312 C13.89444,27.3072764 13.9743424,27.5982009 14.0655132,27.8905564 L33.4699229,21.2722809 L30.6169961,21.2722809 L13.8276498,27.005312 Z" id="Fill-16" fill="#0072C0" mask="url(#mask-4)"></path>
                <path d="M41.2092732,23.9440222 C41.2096829,23.9427956 41.2240244,23.9415689 41.2240244,23.9405467 L41.2240244,10.1624222 C32.2093902,7.62996889 22.785,7.62915111 13.9752439,10.1599689 L13.9752439,23.94116 C22.785,20.3410978 32.4947854,20.3419156 41.2092732,23.9440222" id="Fill-17" fill="#FFFFFF" mask="url(#mask-4)"></path>
                <path d="M14.5898371,10.5934524 L14.5898371,23.0970702 C18.687398,21.4858436 23.0894078,20.6588658 27.5592322,20.6588658 L27.56292,20.6588658 C32.0306956,20.6588658 36.3069102,21.4856391 40.6093493,23.0956391 L40.6093493,10.5957013 C36.3069102,9.42750578 31.9630859,8.801088 27.5395639,8.801088 L27.5354663,8.801088 C23.1133785,8.801088 18.687398,9.42627911 14.5898371,10.5934524 L14.5898371,10.5934524 Z M13.3605688,24.7957991 L13.3605688,9.72865244 L13.7770859,9.551808 C18.2315444,8.27811911 22.8615834,7.57442133 27.5354663,7.57442133 L27.5397688,7.57442133 C32.2154956,7.57442133 36.8039444,8.27934578 41.2598371,9.55426133 L41.6337395,9.73090133 L41.6337395,24.6990969 L40.6093493,24.3347769 L40.6093493,24.3276213 C36.3069102,22.659968 32.0374566,21.8855324 27.56292,21.8855324 L27.5592322,21.8855324 C22.9572615,21.8855324 18.4464615,22.7435858 14.153242,24.5063058 L13.3605688,24.7957991 Z" id="Fill-18" fill="#0072C0" mask="url(#mask-4)"></path>
                <path d="M15.6066263,9.93092978 C19.5046361,8.98844089 23.5136898,8.511472 27.5510166,8.511472 C31.508441,8.511472 35.4507044,8.969632 39.2997483,9.87552533 C36.7912215,10.6229742 32.7049288,11.9911164 27.5975239,14.0643876 L15.6066263,9.93092978 Z" id="Fill-19" fill="#FFFFFF" mask="url(#mask-4)"></path>
                <path d="M27.5511805,7.93201511 C22.8471805,7.93201511 18.1524,8.57294844 13.6082049,9.855224 L27.6144878,14.6831796 C36.570322,11.0344596 41.5533659,9.85767733 41.5533659,9.85767733 C36.9733171,8.57397067 32.2574341,7.93201511 27.5511805,7.93201511 M27.5511805,9.09101067 C30.7278146,9.09101067 33.8950244,9.389704 37.0108098,9.98136622 C34.7270341,10.7212507 31.5594146,11.8358818 27.5810927,13.4454729 L17.742439,10.0541484 C20.9618927,9.41423733 24.2469073,9.09101067 27.5511805,9.09101067" id="Fill-20" fill="#0072C0" mask="url(#mask-4)"></path>
            </g>
        </g>
    </g>
</svg>